<svg width="42" height="28" viewBox="0 0 42 28" fill="none" xmlns="http://www.w3.org/2000/svg">
<path fill-rule="evenodd" clip-rule="evenodd" d="M40.5 14C40.5 20.9036 34.9036 26.5 28 26.5C25.9939 26.5 24.0981 26.0274 22.418 25.1875C21.9659 25.5282 21.4924 25.8422 21 26.1271C23.0592 27.3182 25.45 28 28 28C35.732 28 42 21.732 42 14C42 6.26801 35.732 0 28 0C24.1854 0 20.7271 1.52562 18.202 4C19.0391 3.17971 19.9788 2.46369 21 1.87296C21.4924 2.1578 21.9659 2.47177 22.418 2.81252C24.0981 1.97259 25.9939 1.5 28 1.5C34.9036 1.5 40.5 7.09644 40.5 14Z" fill="url(#paint0_linear_1049_3499)"/>
<path fill-rule="evenodd" clip-rule="evenodd" d="M19.582 25.1875C17.9019 26.0274 16.0061 26.5 14 26.5C7.09644 26.5 1.5 20.9036 1.5 14C1.5 7.09644 7.09644 1.5 14 1.5C16.0061 1.5 17.9019 1.97259 19.582 2.81252C20.0341 2.47177 20.5076 2.1578 21 1.87296C18.9408 0.681763 16.55 0 14 0C6.26801 0 0 6.26801 0 14C0 21.732 6.26801 28 14 28C16.55 28 18.9408 27.3182 21 26.1271C20.5076 25.8422 20.0341 25.5282 19.582 25.1875Z" fill="url(#paint1_linear_1049_3499)"/>
<mask id="mask0_1049_3499" style="mask-type:alpha" maskUnits="userSpaceOnUse" x="14" y="1" width="14" height="26">
<path fill-rule="evenodd" clip-rule="evenodd" d="M21 26.127C25.1846 23.7064 28 19.1819 28 14C28 8.81799 25.1846 4.29359 21 1.87292C16.8154 4.29359 14 8.81799 14 14C14 19.1819 16.8154 23.7064 21 26.127Z" fill="url(#paint2_linear_1049_3499)"/>
</mask>
<g mask="url(#mask0_1049_3499)">
<rect x="21.5" y="-2" width="16" height="1.5" transform="rotate(30 21.5 -2)" fill="url(#paint3_linear_1049_3499)"/>
<rect x="19.75" y="1.03107" width="16" height="1.5" transform="rotate(30 19.75 1.03107)" fill="url(#paint4_linear_1049_3499)"/>
<rect x="18" y="4.06219" width="16" height="1.5" transform="rotate(30 18 4.06219)" fill="url(#paint5_linear_1049_3499)"/>
<rect x="16.25" y="7.09326" width="16" height="1.5" transform="rotate(30 16.25 7.09326)" fill="url(#paint6_linear_1049_3499)"/>
<rect x="14.5" y="10.1243" width="16" height="1.5" transform="rotate(30 14.5 10.1243)" fill="url(#paint7_linear_1049_3499)"/>
<rect x="12.75" y="13.1555" width="16" height="1.5" transform="rotate(30 12.75 13.1555)" fill="url(#paint8_linear_1049_3499)"/>
<rect x="11" y="16.1865" width="16" height="1.5" transform="rotate(30 11 16.1865)" fill="url(#paint9_linear_1049_3499)"/>
<rect x="9.25" y="19.2177" width="16" height="1.5" transform="rotate(30 9.25 19.2177)" fill="url(#paint10_linear_1049_3499)"/>
<rect x="7.5" y="22.2487" width="16" height="1.5" transform="rotate(30 7.5 22.2487)" fill="url(#paint11_linear_1049_3499)"/>
<rect x="5.75" y="25.2798" width="16" height="1.5" transform="rotate(30 5.75 25.2798)" fill="url(#paint12_linear_1049_3499)"/>
</g>
<defs>
<linearGradient id="paint0_linear_1049_3499" x1="17.952" y1="0" x2="45.0218" y2="3.31351" gradientUnits="userSpaceOnUse">
<stop stop-color="#2F68FE"/>
<stop offset="0.47884" stop-color="#7B9FFE"/>
<stop offset="1" stop-color="#DD5789"/>
</linearGradient>
<linearGradient id="paint1_linear_1049_3499" x1="0" y1="0" x2="23.7219" y2="2.53568" gradientUnits="userSpaceOnUse">
<stop stop-color="#2F68FE"/>
<stop offset="0.47884" stop-color="#7B9FFE"/>
<stop offset="1" stop-color="#DD5789"/>
</linearGradient>
<linearGradient id="paint2_linear_1049_3499" x1="14" y1="1.87292" x2="29.8878" y2="3.17997" gradientUnits="userSpaceOnUse">
<stop stop-color="#2F68FE"/>
<stop offset="0.432018" stop-color="#6CCAF6"/>
<stop offset="0.697135" stop-color="#6CCAF6"/>
<stop offset="1" stop-color="#DD5789"/>
</linearGradient>
<linearGradient id="paint3_linear_1049_3499" x1="21.5" y1="-2" x2="27.0209" y2="6.39307" gradientUnits="userSpaceOnUse">
<stop stop-color="#2F68FE"/>
<stop offset="0.47884" stop-color="#7B9FFE"/>
<stop offset="1" stop-color="#DD5789"/>
</linearGradient>
<linearGradient id="paint4_linear_1049_3499" x1="19.75" y1="1.03107" x2="25.2709" y2="9.42413" gradientUnits="userSpaceOnUse">
<stop stop-color="#2F68FE"/>
<stop offset="0.47884" stop-color="#7B9FFE"/>
<stop offset="1" stop-color="#DD5789"/>
</linearGradient>
<linearGradient id="paint5_linear_1049_3499" x1="18" y1="4.06219" x2="23.5209" y2="12.4553" gradientUnits="userSpaceOnUse">
<stop stop-color="#2F68FE"/>
<stop offset="0.47884" stop-color="#7B9FFE"/>
<stop offset="1" stop-color="#DD5789"/>
</linearGradient>
<linearGradient id="paint6_linear_1049_3499" x1="16.25" y1="7.09326" x2="21.7709" y2="15.4863" gradientUnits="userSpaceOnUse">
<stop stop-color="#2F68FE"/>
<stop offset="0.47884" stop-color="#7B9FFE"/>
<stop offset="1" stop-color="#DD5789"/>
</linearGradient>
<linearGradient id="paint7_linear_1049_3499" x1="14.5" y1="10.1243" x2="20.0209" y2="18.5174" gradientUnits="userSpaceOnUse">
<stop stop-color="#2F68FE"/>
<stop offset="0.47884" stop-color="#7B9FFE"/>
<stop offset="1" stop-color="#DD5789"/>
</linearGradient>
<linearGradient id="paint8_linear_1049_3499" x1="12.75" y1="13.1555" x2="18.2709" y2="21.5485" gradientUnits="userSpaceOnUse">
<stop stop-color="#2F68FE"/>
<stop offset="0.47884" stop-color="#7B9FFE"/>
<stop offset="1" stop-color="#DD5789"/>
</linearGradient>
<linearGradient id="paint9_linear_1049_3499" x1="11" y1="16.1865" x2="16.5209" y2="24.5796" gradientUnits="userSpaceOnUse">
<stop stop-color="#2F68FE"/>
<stop offset="0.47884" stop-color="#7B9FFE"/>
<stop offset="1" stop-color="#DD5789"/>
</linearGradient>
<linearGradient id="paint10_linear_1049_3499" x1="9.25" y1="19.2177" x2="14.7709" y2="27.6107" gradientUnits="userSpaceOnUse">
<stop stop-color="#2F68FE"/>
<stop offset="0.47884" stop-color="#7B9FFE"/>
<stop offset="1" stop-color="#DD5789"/>
</linearGradient>
<linearGradient id="paint11_linear_1049_3499" x1="7.5" y1="22.2487" x2="13.0209" y2="30.6418" gradientUnits="userSpaceOnUse">
<stop stop-color="#2F68FE"/>
<stop offset="0.47884" stop-color="#7B9FFE"/>
<stop offset="1" stop-color="#DD5789"/>
</linearGradient>
<linearGradient id="paint12_linear_1049_3499" x1="5.75" y1="25.2798" x2="11.2709" y2="33.6729" gradientUnits="userSpaceOnUse">
<stop stop-color="#2F68FE"/>
<stop offset="0.47884" stop-color="#7B9FFE"/>
<stop offset="1" stop-color="#DD5789"/>
</linearGradient>
</defs>
</svg>
